<?xml version="1.0" encoding="UTF-8"?>
<svg width="77px" height="36px" viewBox="0 0 77 36" version="1.1" xmlns="http://www.w3.org/2000/svg" xmlns:xlink="http://www.w3.org/1999/xlink">
    <!-- Generator: Sketch 51.3 (57544) - http://www.bohemiancoding.com/sketch -->
    <title>HC-登录页</title>
    <desc>Created with Sketch.</desc>
    <defs>
        <polygon id="path-1" points="0.0580300331 0.0796495832 26.1907652 0.0796495832 26.1907652 34.8414612 0.0580300331 34.8414612"></polygon>
    </defs>
    <g id="Page-1" stroke="none" stroke-width="1" fill="none" fill-rule="evenodd">
        <g id="登录页" transform="translate(-148.000000, -87.000000)">
            <g id="Page-1" transform="translate(148.000000, 87.000000)">
                <polygon id="Fill-1" fill="#E71212" points="7.01916903 2 4.0493763 16.9762981 1.22993456 16.9762981 0 23.1003406 3.11956655 23.1003406 1.22993456 32.3775488 13.2585907 32.4075901 15.0584738 23.1003406 22.1613315 23.1003406 24.9894307 18.5095691 21.522412 36 33.4007171 36 40 2.89394628 28.0913938 2.86390502 25.2635832 17.1276711 16.138346 17.1276711 19.1675865 2"></polygon>
                <g id="Group-22" transform="translate(40.000000, 0.000000)">
                    <g id="Group-4">
                        <mask id="mask-2" fill="white">
                            <use xlink:href="#path-1"></use>
                        </mask>
                        <g id="Clip-3"></g>
                        <path d="M14.0263096,24.2633929 C10.2724563,22.3838961 8.75120698,17.8152777 10.6290083,14.0583265 C12.5073926,10.3013753 17.0728899,8.77869697 20.8270347,10.6587772 C21.0031242,10.746596 21.1655113,10.8495861 21.3316884,10.9487834 C21.4168177,9.88620546 22.1340031,8.92778466 23.2097812,8.59926659 L23.449426,8.5257439 C24.8549345,8.09394396 25.6525846,6.59256391 25.2219818,5.18746357 L25.1488056,4.94793131 C24.8488122,3.9679205 25.1470564,2.94152038 25.8307148,2.26347777 C25.6205153,2.14706684 25.4120651,2.02773835 25.1951603,1.91920485 C16.6186725,-2.37428697 6.18654035,1.10316132 1.89596414,9.68722738 C-2.39373745,18.2695429 1.08140479,28.7091817 9.65818412,33.003257 C15.1041285,35.7297235 21.2964122,35.3189301 26.1907652,32.4608813 L21.0060395,24.1609863 C18.9063773,25.2830826 16.3175129,25.4102885 14.0263096,24.2633929" id="Fill-2" fill="#E71212" mask="url(#mask-2)"></path>
                    </g>
                    <path d="M36.7398627,8.3452632 C36.9255729,8.62214032 36.8057504,8.86779948 36.4739793,8.89114001 L32.4422895,9.16685011 C32.1087692,9.18873186 31.9574605,8.96232865 32.1020638,8.66211099 L33.8801588,5.03003165 C34.0268028,4.7303975 34.2993915,4.71114156 34.4856848,4.98801868 L36.7398627,8.3452632 Z" id="Fill-5" fill="#E71212"></path>
                    <path d="M36.4027855,14.2818413 C35.7307886,15.1559444 34.4774634,15.3187447 33.6045963,14.6465372 C32.7302715,13.9728709 32.5678844,12.7197759 33.2398813,11.8456727 C33.9118782,10.9715696 35.1649119,10.8084776 36.0386536,11.4815604 C36.9118122,12.1540596 37.0750739,13.4077382 36.4027855,14.2818413" id="Fill-7" fill="#E71212"></path>
                    <path d="M28.5004812,6.34670052 C28.2427609,6.3805443 28.0036991,6.19644582 27.969589,5.93736585 L27.6643479,3.58989132 C27.6311125,3.33022785 27.8141989,3.09069559 28.0733768,3.05772708 L30.4205556,2.75138253 C30.6785674,2.71812226 30.9179207,2.90192899 30.9505731,3.1607172 L31.2566888,5.50935875 C31.2905073,5.76843872 31.1062548,6.00709571 30.848826,6.04093949 L28.5004812,6.34670052 Z" id="Fill-9" fill="#E71212"></path>
                    <path d="M30.478047,12.5626357 C31.0063153,12.4943646 31.3821088,12.0047969 31.3138887,11.4761337 L31.1331346,10.0853294 C31.0637484,9.55666626 30.575421,9.18059185 30.0474442,9.24915468 L29.9567757,9.26199197 C29.4279243,9.33084656 28.9401799,8.95535567 28.8710853,8.42581723 L28.8600068,8.33508089 C28.790329,7.80612596 28.3028762,7.43034332 27.7746079,7.4991979 L26.3848425,7.67979531 C25.8565743,7.74923341 25.4804893,8.23821766 25.5495839,8.76658907 L25.561537,8.85703365 C25.6303402,9.38452979 25.2539636,9.87351405 24.7259869,9.94295215 L24.6356099,9.95491417 C24.1070501,10.0231852 23.7312566,10.5124613 23.8003513,11.0414162 L23.9805222,12.4313452 C24.0499085,12.9597166 24.5379444,13.3352075 25.0662127,13.2675199 L25.1562981,13.2555579 C25.685441,13.1867033 26.1731854,13.5630695 26.2422801,14.0917326 L26.2542332,14.1815937 C26.3230363,14.7105486 26.8110722,15.0863313 27.3399236,15.0174767 L28.7279397,14.8374628 C29.2573741,14.7686082 29.6331676,14.2793322 29.5634899,13.750669 L29.5527029,13.660808 C29.4838998,13.131853 29.8594017,12.6434523 30.38767,12.5745977 L30.478047,12.5626357 Z" id="Fill-11" fill="#E71212"></path>
                </g>
            </g>
        </g>
    </g>
</svg>