<?xml version="1.0" encoding="UTF-8"?>
<svg width="51px" height="51px" viewBox="0 0 51 51" version="1.1" xmlns="http://www.w3.org/2000/svg" xmlns:xlink="http://www.w3.org/1999/xlink">
    <!-- Generator: Sketch 51.2 (57519) - http://www.bohemiancoding.com/sketch -->
    <title>Shape</title>
    <desc>Created with Sketch.</desc>
    <defs></defs>
    <g id="Page-1" stroke="none" stroke-width="1" fill="none" fill-rule="evenodd">
        <g id="我的" transform="translate(-19.000000, -53.000000)" fill="#fff" fill-rule="nonzero">
            <g id="个人" transform="translate(19.000000, 53.000000)">
                <path d="M25.5,0 C11.4167317,0 0,11.4167317 0,25.5 C0,39.5832683 11.4167317,51 25.5,51 C39.5832683,51 51,39.5832683 51,25.5 C51,11.4167317 39.5832683,0 25.5,0 Z M41.8477276,40.6819532 C41.736048,39.9403983 41.4454462,39.0597668 40.7315433,38.4823896 C36.9567303,35.4293363 32.4562801,34.2615722 29.9908077,33.9933166 C28.6747836,33.8501585 28.920234,32.7321885 29.414706,31.8527814 C31.0238317,30.8648068 33.1737033,28.7193738 33.590525,26.1516092 C35.9390118,27.252641 39.2026698,20.2340162 34.8011446,20.0269828 C35.2722501,18.3039326 35.2020996,9.07844858 25.381841,9.07844858 C16.2167119,9.07844858 15.9008559,18.0231775 16.0623807,19.9743317 C12.6020972,20.6902753 14.2163758,26.9719368 17.2730004,26.1516092 C17.6320691,28.5793279 19.0592116,30.0951917 21.3051511,31.7094703 C21.6619239,32.6917818 21.7262583,33.2886991 21.6067729,33.8880653 C18.090675,34.4744217 12.7892333,35.3357682 9.80633052,38.4590231 C9.26583978,39.0249721 9.06615311,39.7775471 8.99380873,40.5117553 C7.28861506,38.6404451 5.92728653,36.5161849 4.94063837,34.1835648 C3.77807821,31.4349904 3.18860965,28.5133609 3.18860965,25.499949 C3.18860965,22.4865371 3.77807821,19.5649587 4.94063837,16.8163331 C6.06422037,14.1598982 7.67339707,11.7735046 9.72347635,9.72342534 C11.7735556,7.67334611 14.1599492,6.06416936 16.8163842,4.94058735 C19.5649586,3.77802719 22.4865881,3.18855864 25.5,3.18855864 C28.5134119,3.18855864 31.4349903,3.77802719 34.1836158,4.94058735 C36.8400508,6.06416936 39.2264444,7.67334606 41.2765237,9.72342534 C43.3266029,11.7735046 44.9357796,14.1598982 46.0593616,16.8163331 C47.2219218,19.5649076 47.8113903,22.4865371 47.8113903,25.499949 C47.8113903,28.5133609 47.2219218,31.4349393 46.0593616,34.1835648 C45.0425105,36.5875599 43.6267451,38.7694201 41.8477276,40.6819532 Z" id="Shape"></path>
            </g>
        </g>
    </g>
</svg>