<?xml version="1.0" encoding="UTF-8"?>
<svg width="22px" height="19px" viewBox="0 0 22 19" version="1.1" xmlns="http://www.w3.org/2000/svg" xmlns:xlink="http://www.w3.org/1999/xlink">
    <!-- Generator: Sketch 51.3 (57544) - http://www.bohemiancoding.com/sketch -->
    <title>Shape</title>
    <desc>Created with Sketch.</desc>
    <defs></defs>
    <g id="Page-1" stroke="none" stroke-width="1" fill="none" fill-rule="evenodd">
        <g id="首页--未登录状态-copy-2" transform="translate(-8.000000, -10.000000)" fill="#3982EF" fill-rule="nonzero">
            <g id="下载-(1)" transform="translate(8.000000, 10.000000)">
                <path d="M10.8206468,11.0962019 C10.8674072,11.1609453 10.9303425,11.2010531 10.9998949,11.2010531 C11.0694474,11.2010531 11.1323827,11.1609453 11.1791431,11.0962019 L14.9279149,5.89510136 C14.9530596,5.86010089 14.9629116,5.80391986 14.9495305,5.75329687 C14.9357083,5.70312451 14.9030642,5.67217989 14.8685086,5.67217989 L12.4431441,5.67217989 L12.4431441,0.385606099 C12.4431441,0.28676355 12.4175582,0.187921024 12.3665335,0.113713995 C12.3153618,0.0378545903 12.2481621,0 12.1812565,0 L9.81897446,2.20043891e-08 C9.75206887,2.20043891e-08 9.68486919,0.0377043883 9.63369744,0.113714017 C9.58252569,0.188071248 9.55708687,0.286913796 9.55708687,0.385606121 L9.55708687,5.67217991 L7.13157536,5.67217989 C7.09701971,5.67217989 7.06437567,5.70312451 7.05055343,5.75329687 C7.0371723,5.80391988 7.04658321,5.85980047 7.07216908,5.89510136 L10.8206468,11.0962019 Z M21.2736529,12.8537365 L17.9413133,10.4911293 L15.8591525,10.4911293 L19.3522125,13.379044 L15.5118316,13.3276699 C15.4005183,13.3276699 15.2405331,13.4373281 15.1900965,13.5285096 L14.1232832,16.1642105 L7.87680072,16.1642105 L6.80998738,13.5285096 C6.75999199,13.4373281 6.60000675,13.3276699 6.48825235,13.3276699 L2.67081046,13.3276699 L6.14151964,10.4911293 L4.05847656,10.4911293 L0.726578099,12.8537365 C0.206331976,13.1726463 -0.106286232,13.9066048 0.0332597235,14.4862908 L0.650996852,17.9471316 C0.791425079,18.526367 1.4107797,19 2.02778159,19 L19.9727435,19 C20.5893043,19 21.2091,18.526367 21.3495283,17.9471316 L21.9665301,14.4862908 C22.1065172,13.9066048 21.7943401,13.1726463 21.2736529,12.8537365 Z" id="Shape"></path>
            </g>
        </g>
    </g>
</svg>