<?xml version="1.0" encoding="UTF-8"?>
<svg width="64px" height="29px" viewBox="0 0 64 29" version="1.1" xmlns="http://www.w3.org/2000/svg" xmlns:xlink="http://www.w3.org/1999/xlink">
    <!-- Generator: Sketch 51.2 (57519) - http://www.bohemiancoding.com/sketch -->
    <title>Group 14</title>
    <desc>Created with Sketch.</desc>
    <defs></defs>
    <g id="Page-1" stroke="none" stroke-width="1" fill="none" fill-rule="evenodd">
        <g id="首页-" transform="translate(-156.000000, -7.000000)" fill="#E71212">
            <g id="Page-1" transform="translate(156.000000, 7.000000)">
                <g id="Group-14">
                    <polygon id="Fill-1" points="5.92443625 1.14851485 3.4178222 13.4165191 1.03810991 13.4165191 0 18.4330978 2.63302865 18.4330978 1.03810991 26.0326281 11.1907371 26.0572367 12.7099045 18.4330978 18.7047335 18.4330978 21.0922401 14.6725154 18.1657055 29 28.191431 29 33.7614679 1.88080108 23.7101672 1.85619244 21.3233913 13.540518 13.6213563 13.540518 16.1781464 1.14851485"></polygon>
                    <path d="M44.8519806,19.8987616 C41.7266928,18.3573589 40.4601696,14.6105685 42.0235417,11.5294381 C43.5873993,8.44830776 47.3884251,7.19953713 50.5139556,8.74141832 C50.6605597,8.81343977 50.7957558,8.89790347 50.9341073,8.9792566 C51.0049822,8.10782096 51.6020782,7.32180611 52.4977222,7.05238366 L52.6972396,6.99208663 C53.8674022,6.63796122 54.5314894,5.40665759 54.1729891,4.25431436 L54.1120659,4.05787046 C53.862305,3.25414934 54.1106095,2.41238366 54.6797925,1.85631106 C54.50479,1.76084076 54.3312438,1.66297772 54.1506587,1.57396782 C47.0102642,-1.94718729 38.3249446,0.904718647 34.7528056,7.94463614 C31.1813948,14.983118 34.0746405,23.5448177 41.2152776,27.0664513 C45.7493237,29.3024662 50.904738,28.9655685 54.9795541,26.6216411 L50.6629869,19.8147764 C48.9149034,20.7350239 46.7595325,20.8393474 44.8519806,19.8987616" id="Fill-2"></path>
                    <path d="M63.7622538,6.84407178 C63.9168677,7.07114274 63.817109,7.27261139 63.5408914,7.2917533 L60.1842895,7.51786716 C59.9066156,7.53581271 59.7806429,7.35013614 59.901033,7.10392327 L61.3813942,4.12520215 C61.5034833,3.87946782 61.7304284,3.86367574 61.8855277,4.0907467 L63.7622538,6.84407178 Z" id="Fill-5"></path>
                    <path d="M63.4816187,11.7127459 C62.9221446,12.4296106 61.8786829,12.5631254 61.1519734,12.0118383 C60.4240503,11.4593548 60.2888542,10.4316733 60.8483283,9.71480858 C61.4078024,8.99794389 62.4510213,8.86418977 63.178459,9.41619472 C63.9054113,9.96772112 64.0413355,10.9958812 63.4816187,11.7127459" id="Fill-8"></path>
                    <path d="M56.9025188,5.20502145 C56.6879526,5.23277723 56.4889206,5.08179538 56.4605221,4.86932013 L56.2063923,2.94412211 C56.178722,2.73116832 56.3311513,2.53472442 56.5469312,2.50768647 L58.5010856,2.25644884 C58.7158945,2.22917162 58.9151693,2.37991419 58.9423541,2.59215017 L59.1972122,4.51830528 C59.2253679,4.73078053 59.0719676,4.9265066 58.8576442,4.95426238 L56.9025188,5.20502145 Z" id="Fill-10"></path>
                    <path d="M58.5489504,10.3028003 C58.9887626,10.2468102 59.3016311,9.84530858 59.2448342,9.41174422 L59.0943466,8.27112541 C59.0365788,7.83756106 58.6300195,7.52913696 58.19045,7.58536634 L58.1149635,7.59589439 C57.6746659,7.65236304 57.2685921,7.34441749 57.211067,6.91013531 L57.2018435,6.83572112 C57.143833,6.40191749 56.7380019,6.09373267 56.2981897,6.15020132 L55.1411341,6.29831188 C54.701322,6.35525908 54.3882106,6.75628218 54.4457358,7.18960726 L54.4556874,7.26378218 C54.5129697,7.69638944 54.1996157,8.09741254 53.7600462,8.15435974 L53.6848024,8.16416997 C53.2447475,8.22016007 52.9318789,8.62142244 52.989404,9.05522607 L53.1394062,10.1951271 C53.197174,10.6284521 53.6034906,10.9363977 54.0433028,10.8808861 L54.1183038,10.8710759 C54.5588442,10.8146073 54.964918,11.1232706 55.0224431,11.556835 L55.0323947,11.6305314 C55.0896771,12.064335 55.4959936,12.3725198 55.9362913,12.3160512 L57.0918905,12.1684191 C57.5326736,12.1119505 57.8455422,11.7106881 57.7875316,11.2771238 L57.7785509,11.2034274 C57.7212685,10.7696238 58.0338944,10.3690792 58.4737066,10.3126106 L58.5489504,10.3028003 Z" id="Fill-12"></path>
                </g>
            </g>
        </g>
    </g>
</svg>