<?xml version="1.0" encoding="UTF-8"?>
<svg width="45px" height="45px" viewBox="0 0 45 45" version="1.1" xmlns="http://www.w3.org/2000/svg" xmlns:xlink="http://www.w3.org/1999/xlink">
    <!-- Generator: Sketch 52.4 (67378) - http://www.bohemiancoding.com/sketch -->
    <title>存款充值ico</title>
    <desc>Created with Sketch.</desc>
    <defs>
        <linearGradient x1="18.1196795%" y1="0%" x2="92.9669654%" y2="100%" id="linearGradient-1">
            <stop stop-color="#FFE7A1" offset="0%"></stop>
            <stop stop-color="#AF8C24" offset="100%"></stop>
        </linearGradient>
        <rect id="path-2" x="0" y="0" width="45" height="45" rx="22.5"></rect>
        <linearGradient x1="94.8005477%" y1="37.5299318%" x2="57.6580538%" y2="97.3499349%" id="linearGradient-4">
            <stop stop-color="#FFE28C" offset="0%"></stop>
            <stop stop-color="#F7E19E" offset="100%"></stop>
        </linearGradient>
        <linearGradient x1="6.33592847%" y1="59.2368491%" x2="88.6740436%" y2="29.8237615%" id="linearGradient-5">
            <stop stop-color="#FAD784" offset="0%"></stop>
            <stop stop-color="#D4A722" stop-opacity="0.4" offset="100%"></stop>
        </linearGradient>
        <path d="M23.5628675,17.6002118 L21.9379062,17.6002118 C21.9379062,18.922448 20.8440751,20 19.5001548,20 L2.43775149,20 C1.09321206,20 0,18.922448 0,17.6002118 L0,6.40061172 C0,5.07719908 1.09321206,4.00023528 2.43775149,4.00023528 L3.24992263,4.00023528 L3.24992263,2.40096462 C3.24992263,1.07755198 4.34313469,0 5.6876741,0 L23.5628675,0 C24.9067879,0 26,1.07755198 26,2.40096462 L26,15.1992471 C26,16.5226598 24.9067879,17.6002118 23.5628675,17.6002118 Z M24.5203947,15.1936996 L24.5203947,2.30666144 C24.5203947,1.8612801 24.1497105,1.50000002 23.694694,1.5 L5.52172484,1.5 C5.06544964,1.5 4.69539472,1.86128008 4.69539474,2.30666144 L4.69539474,3.91702299 L19.5643021,3.91702299 C20.9306103,3.91702299 22.0426631,5.0014555 22.0426631,6.33404597 L22.0426631,15.9991765 L23.694694,15.9991765 C24.1497105,15.9991765 24.5203947,15.639081 24.5203947,15.1936996 Z M2.38052391,5.5 C1.93090925,5.5 1.56513158,5.86887029 1.56513158,6.32510462 L1.56513158,8.79981178 L20.3129449,8.79981178 L20.3129449,6.32510462 C20.3129449,5.86887031 19.9465462,5.5 19.4975526,5.5 L2.38052391,5.5 Z M4,14 C3.44771525,14 3,14.4477153 3,15 C3,15.5522847 3.44771525,16 4,16 L5,16 C5.55228475,16 6,15.5522847 6,15 C6,14.4477153 5.55228475,14 5,14 L4,14 Z" id="path-6"></path>
        <filter x="-13.5%" y="-12.5%" width="126.9%" height="135.0%" filterUnits="objectBoundingBox" id="filter-7">
            <feOffset dx="0" dy="1" in="SourceAlpha" result="shadowOffsetOuter1"></feOffset>
            <feGaussianBlur stdDeviation="1" in="shadowOffsetOuter1" result="shadowBlurOuter1"></feGaussianBlur>
            <feColorMatrix values="0 0 0 0 0.478431373   0 0 0 0 0.478431373   0 0 0 0 0.478431373  0 0 0 0.5 0" type="matrix" in="shadowBlurOuter1"></feColorMatrix>
        </filter>
    </defs>
    <g id="Page-1" stroke="none" stroke-width="1" fill="none" fill-rule="evenodd">
        <g id="修改的地方" transform="translate(-41.000000, -207.000000)">
            <g id="存款充值" transform="translate(41.000000, 207.000000)">
                <g id="金底">
                    <mask id="mask-3" fill="white">
                        <use xlink:href="#path-2"></use>
                    </mask>
                    <use id="Rectangle-5" fill="url(#linearGradient-1)" xlink:href="#path-2"></use>
                    <circle id="Oval-2" fill-opacity="0.5" fill="url(#linearGradient-4)" mask="url(#mask-3)" cx="-4" cy="3" r="31"></circle>
                    <circle id="Oval-2" fill-opacity="0.7" fill="url(#linearGradient-5)" mask="url(#mask-3)" cx="22" cy="45" r="23"></circle>
                </g>
                <g id="chongzhi" transform="translate(10.000000, 13.000000)" fill-rule="nonzero">
                    <g id="合并形状">
                        <use fill="black" fill-opacity="1" filter="url(#filter-7)" xlink:href="#path-6"></use>
                        <use fill="#FFFFFF" xlink:href="#path-6"></use>
                    </g>
                </g>
            </g>
        </g>
    </g>
</svg>