<?xml version="1.0" encoding="UTF-8"?>
<svg width="20px" height="20px" viewBox="0 0 20 20" version="1.1" xmlns="http://www.w3.org/2000/svg" xmlns:xlink="http://www.w3.org/1999/xlink">
    <!-- Generator: Sketch 49.2 (51160) - http://www.bohemiancoding.com/sketch -->
    <title>shoujixiazai-2</title>
    <desc>Created with Sketch.</desc>
    <defs></defs>
    <g id="Page-1" stroke="none" stroke-width="1" fill="none" fill-rule="evenodd">
        <g id="首页棋牌风游戏替换" transform="translate(-13.000000, -32.000000)" fill="#6C65FF">
            <g id="标题栏" transform="translate(0.000000, 20.000000)">
                <g id="shoujixiazai-2" transform="translate(13.000000, 12.000000)">
                    <path d="M15.3533046,1.51055568e-16 L5.6473694,1.51055568e-16 C4.18518607,1.51055568e-16 3,1.03325999 3,2.30783295 L3,17.6921458 C3,18.9661022 4.18518607,20 5.6473694,20 L15.3532821,20 C16.8154655,20 18,18.9661022 18,17.6921458 L18,2.30781169 C18,1.03325999 16.8154879,0 15.3533046,1.51055568e-16 Z M10.5,19.0599403 C9.87745828,19.0599403 9.37208264,18.6195351 9.37208264,18.076448 C9.37208264,17.5339775 9.87745828,17.0935935 10.5,17.0935935 C11.1232157,17.0935935 11.6279174,17.5339987 11.6279174,18.076448 C11.6279174,18.6201728 11.1232157,19.0599403 10.5,19.0599403 Z M16.2355214,15.9191855 C16.2355214,16.1338876 16.0384398,16.3078117 15.7940873,16.3078117 L5.20593522,16.3078117 C4.96223425,16.3078117 4.76513011,16.1338876 4.76513011,15.9191855 L4.76513011,2.69643785 C4.76513011,2.48109093 4.96221178,2.30781169 5.20593522,2.30781169 L15.7940873,2.30781169 C16.0384398,2.30781169 16.2355214,2.48173581 16.2355214,2.69643785 L16.2355214,15.9191855 Z" id="Shape" fill-rule="nonzero"></path>
                    <path d="M10.6106573,12.8510032 C10.8243583,13.0496656 11.1692596,13.0496656 11.3829606,12.8510032 L13.8401461,10.5504135 C14.0529765,10.3515797 14.0533293,10.0288761 13.8409341,9.82963487 C13.6285389,9.63039362 13.2838254,9.63006332 13.070995,9.82889713 L11.5437258,11.258798 L11.5437258,5.51052081 C11.5437258,5.22856795 11.2995684,5 10.998385,5 C10.6972017,5 10.4530443,5.22856795 10.4530443,5.51052081 L10.4530443,11.258798 L8.9257751,9.82889713 C8.71221753,9.63370595 8.37068031,9.63561998 8.15963433,9.83319071 C7.94858835,10.0307614 7.94654377,10.3504916 8.1550479,10.5504135 L10.6106573,12.8510032 Z" id="Path" stroke="#6C65FF" stroke-width="0.5"></path>
                </g>
            </g>
        </g>
    </g>
</svg>