<?xml version="1.0" encoding="UTF-8"?>
<svg width="21px" height="21px" viewBox="0 0 21 21" version="1.1" xmlns="http://www.w3.org/2000/svg" xmlns:xlink="http://www.w3.org/1999/xlink">
    <!-- Generator: Sketch 51.2 (57519) - http://www.bohemiancoding.com/sketch -->
    <title>Shape</title>
    <desc>Created with Sketch.</desc>
    <defs></defs>
    <g id="Page-1" stroke="none" stroke-width="1" fill="none" fill-rule="evenodd">
        <g id="帮助中心" transform="translate(-25.000000, -66.000000)" fill="#45BEFC" fill-rule="nonzero">
            <g id="Group-4" transform="translate(0.000000, 51.000000)">
                <g id="帮助" transform="translate(25.000000, 15.000000)">
                    <path d="M10.5,21 C4.70099936,21 0,16.298974 0,10.5 C0,4.70099936 4.70099933,0 10.5,0 C16.298974,0 21,4.70099933 21,10.5 C21,16.298974 16.298974,21 10.5,21 Z M9.29222517,17.6899797 C9.57163419,17.9834895 9.92811877,18.1302444 10.3614661,18.1302444 C10.7807659,18.1302444 11.1510054,17.9906995 11.4726903,17.7109181 C11.7662001,17.4174082 11.912955,17.0541393 11.912955,16.6207121 C11.912955,16.1735566 11.7662001,15.8171518 11.4726903,15.5514711 C11.1929088,15.2720355 10.8227491,15.1321448 10.3614661,15.1321448 C9.91399136,15.1321448 9.55758657,15.2720355 9.29222517,15.5514711 C8.98461454,15.8171518 8.83096883,16.1735566 8.83096883,16.6207121 C8.83094224,17.0400385 8.98458792,17.3964433 9.29222517,17.6899797 Z M14.009507,3.978266 C13.1846624,3.23760067 12.0875391,2.86709507 10.7178975,2.86709507 C9.18016358,2.86709507 7.97137777,3.31459645 7.09076848,4.20893408 C6.19608498,5.08949015 5.74898267,6.29175769 5.74898267,7.81504493 L7.97137774,7.81504493 C7.97137774,6.87880393 8.16006264,6.15873112 8.53743241,5.65557141 C8.95675877,5.06852517 9.64144652,4.77501534 10.5921076,4.77501534 C11.3468738,4.77501534 11.9338934,4.98463863 12.3531931,5.40396498 C12.7584453,5.83736554 12.9612044,6.41031098 12.9612044,7.12317375 C12.9612044,7.65453507 12.7725195,8.16461217 12.3951497,8.65369766 L12.0387449,9.05205903 C10.7388359,10.21237 9.94211316,11.0788785 9.64860334,11.6517973 C9.38294929,12.1831586 9.25026859,12.8468814 9.25026859,13.6435775 L9.25026859,13.9999823 L11.4936287,13.9999823 L11.4936287,13.6435775 C11.4936287,13.112562 11.6053178,12.6444415 11.8290685,12.2388435 C12.0105433,11.875548 12.297189,11.5191432 12.6886596,11.1696026 C13.6668306,10.3309764 14.2611134,9.78583357 14.4707633,9.53425373 C14.9877045,8.84959257 15.2464945,7.99683906 15.2464945,6.97641884 C15.246521,5.71846638 14.8340855,4.71933042 14.009507,3.978266 Z" id="Shape"></path>
                </g>
            </g>
        </g>
    </g>
</svg>